<svg width="25" height="25" viewBox="0 0 25 25" fill="none" xmlns="http://www.w3.org/2000/svg">
  <rect width="25" height="25" fill="none"/>
  <g clip-path="url(#clip0)">
    <rect width="25" height="25" fill="none"/>
    <path fill-rule="evenodd" clip-rule="evenodd" d="M1 0C0.447716 0 0 0.447723 0 1V6H2V2H6V0H1ZM2 19H0V24C0 24.5523 0.447716 25 1 25H6V23H2V19ZM19 25H24C24.5523 25 25 24.5523 25 24V19H23V23H19V25ZM25 1V6H23V2H19V0H24C24.5523 0 25 0.447708 25 1Z" fill="currentColor"/>
    <path d="M4 4L9.375 9.375" stroke="currentColor" stroke-linecap="round"/>
    <path d="M21 4L15.625 9.5M15.625 15.625L21 21M4 21L9.375 15.625" stroke="currentColor" stroke-linecap="round"/>
    <path d="M7 4H4V7" stroke="currentColor" stroke-linecap="round"/>
    <path d="M18 4H21V7" stroke="currentColor" stroke-linecap="round"/>
    <path d="M18 21H21V18" stroke="currentColor" stroke-linecap="round"/>
    <path d="M7 21H4V18" stroke="currentColor" stroke-linecap="round"/>
  </g>
  <defs>
    <clipPath id="clip0">
      <rect width="25" height="25" fill="none"/>
    </clipPath>
  </defs>
</svg>
